<svg xmlns="http://www.w3.org/2000/svg" version="1.1" xmlns:xlink="http://www.w3.org/1999/xlink" xmlns:svgjs="http://svgjs.dev/svgjs" viewBox="0 0 1920 1080"><rect width="1920" height="1080" fill="#283281"></rect><g transform="matrix(7.04171909509728e-17,1.15,-1.15,7.04171909509728e-17,1555.5852813720703,-534.7730735778807)"><path d="M0,-1080C5.396063302978966,-973.322753294625,39.728894270134695,-663.1588399813284,32.3763798178738,-439.9365197677504C25.023865365612902,-216.7141995541724,-48.6597235294248,52.28580924397687,-44.115086713565375,259.3339212814678C-39.57044989770595,466.3820333189587,60.550919863699775,594.2226035298683,59.64420071303036,802.3521524571952C58.73748156236094,1010.4817013845221,-39.61470149874349,1281.8365735882956,-49.555401617581886,1508.1112148454297C-59.49610173642028,1734.3858561025638,-8.259233602930314,2051.351869140905,0,2160L 1920 2160 L 1920 -1080 Z" fill="url(&quot;#SvgjsLinearGradient1342&quot;)"></path><path d="M320,-1080C314.3474042339313,-1009.2575018392679,282.0590468306931,-815.8237678796391,286.0844254035876,-655.5450110356072C290.1098039764821,-495.2662541915753,330.41913244161077,-271.40326614535456,344.15227143736706,-118.32745893580815C357.88541043312335,34.74834827373823,380.73642051114547,120.94401319593263,368.48325937812547,262.90983222167114C356.23009824510547,404.8756512474097,275.5758524570001,574.0328990736688,270.633304639247,733.4674552186228C265.6907568214939,892.9020113635769,338.9275190649473,1061.9517631863762,338.827972471607,1219.5171690913953C338.72842587826665,1377.0825749964145,273.1740204911396,1522.1127521639703,270.03602507920505,1678.8598906487377C266.8980296672705,1835.6070291335052,311.6726708465342,2079.80998177479,320,2160L 1920 2160 L 1920 -1080 Z" fill="url(&quot;#SvgjsLinearGradient1343&quot;)"></path><path d="M640,-1080C642.1336790787759,-966.1408829899688,645.8011781763769,-612.0797367308136,652.8020744726556,-396.84529793981244C659.8029707689343,-181.61085914881133,690.4617643801178,-0.6808605381204416,682.0053777776725,211.4066327460067C673.5489911752272,423.4941260301338,609.8159835957741,667.7266519292738,602.0637548579837,875.6796617649504C594.3115261201932,1083.6326716006272,629.1692978272604,1245.0713020542253,635.4920053509297,1459.1246917600668C641.8147128745991,1673.1780814659082,639.2486675584883,2043.187448626678,640,2160L 1920 2160 L 1920 -1080 Z" fill="url(&quot;#SvgjsLinearGradient1344&quot;)"></path><path d="M960,-1080C962.3041268104464,-945.6526702762922,970.1507158893289,-546.5800163550825,973.8247608626785,-273.9160216577533C977.4988058360282,-1.2520269604239616,975.7642119251233,289.6995297289082,982.0442698400975,555.9839681839758C988.3243277550717,822.2684066390434,1015.1791533258736,1056.4546037699815,1011.505108352524,1323.7906090726522C1007.8310633791743,1591.1266143753228,968.5841847254206,2020.6317681787755,960,2160L 1920 2160 L 1920 -1080 Z" fill="url(&quot;#SvgjsLinearGradient1345&quot;)"></path><path d="M1280,-1080C1287.2061158704219,-993.4149192955382,1325.2297657020013,-750.6280200492688,1323.2366952225304,-560.4895157732291C1321.2436247430596,-370.35101149718935,1264.9896924349482,-120.78960714884457,1268.0415771231746,60.831025656238666C1271.093461811401,242.4516584613219,1342.0005329880898,355.5134427334468,1341.5480033518888,529.2342810572702C1341.0954737156878,702.9551193810936,1284.837485984408,911.2847810123507,1265.326399305969,1103.1560555991787C1245.8153126275301,1295.0273301860066,1222.0358831655842,1504.3212711781014,1224.481483281256,1680.4619285782383C1226.9270833969279,1856.6025859783751,1270.7469138802094,2080.076988096373,1280,2160L 1920 2160 L 1920 -1080 Z" fill="url(&quot;#SvgjsLinearGradient1346&quot;)"></path><path d="M1600,-1080C1604.8991120437686,-996.2507925009259,1621.612734793585,-749.7338306646349,1629.3946722626115,-577.5047550055554C1637.1766097316379,-405.27567934647584,1644.1531604561792,-235.50896817849795,1646.6916248141583,-46.62554604552289C1649.2300891721375,142.25787608745216,1646.6459533968807,363.8211796396788,1644.6254584104863,555.7957777922951C1642.604963424092,747.7703759449114,1640.936732455599,926.3662859714506,1634.5686548957924,1105.2220428701748C1628.2005773359858,1284.0777997688992,1612.1784355342793,1453.133992996337,1606.4169930516473,1628.9303191846411C1600.6555505690153,1804.7266453729453,1601.0694988419411,2071.4883865307734,1600,2160L 1920 2160 L 1920 -1080 Z" fill="url(&quot;#SvgjsLinearGradient1347&quot;)"></path></g><defs><linearGradient x1="0.1" y1="0" x2="0" y2="1" id="SvgjsLinearGradient1342"><stop stop-color="#283281" offset="0"></stop><stop stop-color="#284181" offset="0"></stop></linearGradient><linearGradient x1="0.1" y1="0" x2="0" y2="1" id="SvgjsLinearGradient1343"><stop stop-color="#3846b4" offset="0"></stop><stop stop-color="#385bb4" offset="0.16666666666666666"></stop></linearGradient><linearGradient x1="0.1" y1="0" x2="0" y2="1" id="SvgjsLinearGradient1344"><stop stop-color="#606cce" offset="0"></stop><stop stop-color="#607ece" offset="0.3333333333333333"></stop></linearGradient><linearGradient x1="0.1" y1="0" x2="0" y2="1" id="SvgjsLinearGradient1345"><stop stop-color="#939bdd" offset="0"></stop><stop stop-color="#93a7dd" offset="0.5"></stop></linearGradient><linearGradient x1="0.1" y1="0" x2="0" y2="1" id="SvgjsLinearGradient1346"><stop stop-color="#c5caed" offset="0"></stop><stop stop-color="#c5d1ed" offset="0.6666666666666666"></stop></linearGradient><linearGradient x1="0.1" y1="0" x2="0" y2="1" id="SvgjsLinearGradient1347"><stop stop-color="#f8f8fd" offset="0"></stop><stop stop-color="#f8f9fd" offset="0.8333333333333334"></stop></linearGradient></defs></svg>